<svg fill="none" viewBox="0 0 620 220" height="220" width="620" xmlns="http://www.w3.org/2000/svg" role="img" aria-label="Meta Omni Channel Ad">
  <defs>
    <linearGradient gradientUnits="objectBoundingBox" y2="100%" x2="100%" y1="0%" x1="0%" id="coreGradientLight">
      <stop stop-color="#00F5FF" offset="0%"/>
      <stop stop-color="#007BFF" offset="100%"/>
    </linearGradient>
    <filter height="140%" width="140%" y="-20%" x="-20%" id="glowLight">
      <feGaussianBlur result="coloredBlur" stdDeviation="2.5"/>
      <feMerge>
        <feMergeNode in="coloredBlur"/>
        <feMergeNode in="SourceGraphic"/>
      </feMerge>
    </filter>
  </defs>

  <circle opacity="0.9" stroke-width="4" stroke="#E8F4FF" fill="none" r="68" cy="110" cx="110"/>

  <line filter="url(#glowLight)" stroke-linecap="round" stroke-width="4" stroke="#00C4FF" y2="110" x2="123" y1="110" x1="178"/>
  <line filter="url(#glowLight)" stroke-linecap="round" stroke-width="4" stroke="#00C4FF" y2="85" x2="123" y1="57" x1="157.5"/>
  <line filter="url(#glowLight)" stroke-linecap="round" stroke-width="4" stroke="#00C4FF" y2="85" x2="97" y1="57" x1="62.5"/>
  <line filter="url(#glowLight)" stroke-linecap="round" stroke-width="4" stroke="#00C4FF" y2="110" x2="97" y1="110" x1="42"/>
  <line filter="url(#glowLight)" stroke-linecap="round" stroke-width="4" stroke="#00C4FF" y2="135" x2="97" y1="163" x1="62.5"/>
  <line filter="url(#glowLight)" stroke-linecap="round" stroke-width="4" stroke="#00C4FF" y2="135" x2="123" y1="163" x1="157.5"/>

  <circle fill="#0055FF" r="4" cy="110" cx="178"/>
  <circle fill="#0055FF" r="4" cy="57" cx="157.5"/>
  <circle fill="#0055FF" r="4" cy="57" cx="62.5"/>
  <circle fill="#0055FF" r="4" cy="110" cx="42"/>
  <circle fill="#0055FF" r="4" cy="163" cx="62.5"/>
  <circle fill="#0055FF" r="4" cy="163" cx="157.5"/>

  <circle filter="url(#glowLight)" fill="url(#coreGradientLight)" r="36" cy="110" cx="110"/>

  <text letter-spacing="-2.1px" fill="#FFFFFF" font-weight="900" font-size="58" font-family="'Helvetica Neue', Arial Black, sans-serif" y="88" x="215">META</text>
  <text letter-spacing="4.8px" fill="#00C4FF" font-weight="800" font-size="28" font-family="'Helvetica Neue', Arial Black, sans-serif" y="132" x="215">OMNI</text>
  <text letter-spacing="3.6px" fill="#C5D9EE" font-weight="700" font-size="19" font-family="'Helvetica Neue', Arial, sans-serif" y="168" x="215">CHANNEL • AD</text>
</svg>
